<svg width="142" height="175" viewBox="0 0 142 175" fill="none" xmlns="http://www.w3.org/2000/svg">
<path fill-rule="evenodd" clip-rule="evenodd" d="M21.4572 69.4619V131.915C21.4572 140.406 23.4852 147.875 27.5422 154.322C31.5983 160.768 37.3089 165.804 44.673 169.433C52.038 173.023 60.663 174.818 70.5477 174.818C80.3941 174.818 88.9988 173.023 96.3639 169.433C103.728 165.804 109.439 160.768 113.496 154.322C117.591 147.875 119.639 140.406 119.639 131.915V69.9815L97.7226 82.7536V130.12C97.7226 135.061 96.6202 139.462 94.4146 143.321C92.2089 147.181 89.0583 150.211 84.962 152.411C80.9059 154.572 76.1008 155.653 70.5477 155.653C64.9956 155.653 60.1905 154.572 56.1335 152.411C52.0774 150.211 48.9269 147.181 46.6818 143.321C44.4761 139.462 43.3738 135.061 43.3738 130.12V82.2331L21.4572 69.4619Z" fill="#3B46E0"/>
<path d="M71 0L141.5 41.0256L71 82.0512L0.5 41.0256L71 0Z" fill="#3B46E0"/>
</svg>
