<svg width="25" height="24" viewBox="0 0 25 24" fill="none" xmlns="http://www.w3.org/2000/svg">
<path d="M22.7504 16.92V19.92C22.7516 20.1985 22.6945 20.4741 22.5829 20.7293C22.4714 20.9845 22.3077 21.2136 22.1025 21.4018C21.8973 21.5901 21.655 21.7335 21.3912 21.8227C21.1273 21.9119 20.8478 21.945 20.5704 21.92C17.4933 21.5856 14.5374 20.5341 11.9404 18.85C9.52425 17.3146 7.47576 15.2661 5.94042 12.85C4.2504 10.2412 3.19866 7.27097 2.87042 4.17997C2.84543 3.90344 2.8783 3.62474 2.96692 3.3616C3.05555 3.09846 3.19799 2.85666 3.38519 2.6516C3.57238 2.44653 3.80023 2.28268 4.05421 2.1705C4.3082 2.05831 4.58276 2.00024 4.86042 1.99997H7.86042C8.34573 1.9952 8.81621 2.16705 9.18418 2.48351C9.55215 2.79996 9.7925 3.23942 9.86042 3.71997C9.98704 4.68004 10.2219 5.6227 10.5604 6.52997C10.695 6.8879 10.7241 7.27689 10.6443 7.65086C10.5646 8.02482 10.3793 8.36809 10.1104 8.63998L8.84042 9.90997C10.264 12.4135 12.3369 14.4864 14.8404 15.91L16.1104 14.64C16.3823 14.3711 16.7256 14.1858 17.0995 14.1061C17.4735 14.0263 17.8625 14.0554 18.2204 14.19C19.1277 14.5285 20.0704 14.7634 21.0304 14.89C21.5162 14.9585 21.9598 15.2032 22.277 15.5775C22.5941 15.9518 22.7626 16.4296 22.7504 16.92Z" stroke="#868F95" stroke-width="2" stroke-linecap="round" stroke-linejoin="round"/>
</svg>
