<svg width="32" height="32" viewBox="0 0 32 32" fill="none" xmlns="http://www.w3.org/2000/svg">
<rect width="32" height="32" rx="16" fill="#3B46E0"/>
<path d="M23.7963 9.97496H22.6998V9.20337C22.6998 9.09129 22.6089 9.00033 22.4968 9.00033H17.9441C17.273 9.00033 16.632 9.32094 16.2294 9.8578L15.9993 10.1644L15.7693 9.8576C15.3666 9.32074 14.7256 9.00012 14.0546 9.00012H9.50187C9.38979 9.00012 9.29882 9.09109 9.29882 9.20317V9.97476H8.20237C8.09029 9.97476 7.99933 10.0657 7.99933 10.1778V21.8734C7.99933 21.9855 8.09029 22.0765 8.20237 22.0765H13.2036C13.869 22.0765 14.4866 22.4071 14.8558 22.9608C14.8933 23.0172 14.9569 23.0511 15.0247 23.0511H15.9993H16.9739C17.0418 23.0511 17.1053 23.0172 17.1429 22.9608C17.512 22.4071 18.1297 22.0765 18.7951 22.0765H23.7963C23.9084 22.0765 23.9993 21.9855 23.9993 21.8734V10.178C23.9993 10.0659 23.9084 9.97496 23.7963 9.97496ZM16.5543 10.1015C16.8805 9.66612 17.4001 9.40642 17.9441 9.40642H22.2937V20.3711H18.2651C17.5878 20.3711 16.9508 20.6348 16.4718 21.1138L16.2024 21.3835V10.5705L16.5543 10.1015ZM9.70491 9.40642H14.0546C14.5985 9.40642 15.1181 9.66612 15.4444 10.1015L15.7963 10.5705V21.3833L15.5268 21.1138C15.0477 20.6348 14.4109 20.3711 13.7335 20.3711H9.70491V9.40642ZM23.5932 21.6706H18.7951C18.0304 21.6706 17.3183 22.033 16.8684 22.6452H15.9993H15.1303C14.6803 22.033 13.9681 21.6706 13.2036 21.6706H8.40542V10.3811H9.29882V20.5741C9.29882 20.6862 9.38979 20.7772 9.50187 20.7772H13.7335C14.3025 20.7772 14.8373 20.9987 15.2397 21.4011L15.856 22.0174C15.8956 22.057 15.9476 22.0769 15.9995 22.0769C16.0515 22.0769 16.1035 22.057 16.1431 22.0174L16.7593 21.4011C17.1616 20.9989 17.6966 20.7772 18.2655 20.7772H22.4968C22.6089 20.7772 22.6998 20.6862 22.6998 20.5741V10.3811H23.5932V21.6706Z" fill="white" stroke="white" stroke-width="0.145679"/>
<path d="M14.7004 11.2745H10.8019V11.6806H14.7004V11.2745Z" fill="white" stroke="white" stroke-width="0.145679"/>
<path d="M11.7766 13.5487H10.8019V13.9548H11.7766V13.5487Z" fill="white" stroke="white" stroke-width="0.145679"/>
<path d="M14.6996 13.5487H10.7891V13.9548H14.6996V13.5487Z" fill="white" stroke="white" stroke-width="0.145679"/>
<path d="M14.699 18.0969H10.8019V18.503H14.699V18.0969Z" fill="white" stroke="white" stroke-width="0.145679"/>
<path d="M14.6996 18.0969H14.0499V18.503H14.6996V18.0969Z" fill="white" stroke="white" stroke-width="0.145679"/>
<path d="M14.7004 15.8231H10.8019V16.2292H14.7004V15.8231Z" fill="white" stroke="white" stroke-width="0.145679"/>
<path d="M21.1977 11.2745H17.2992V11.6806H21.1977V11.2745Z" fill="white" stroke="white" stroke-width="0.145679"/>
<path d="M21.1973 13.5487H20.2227V13.9548H21.1973V13.5487Z" fill="white" stroke="white" stroke-width="0.145679"/>
<path d="M21.0365 13.5487H17.2992V13.9548L21.0365 13.9548V13.5487Z" fill="white" stroke="white" stroke-width="0.145679"/>
<path d="M21.197 18.0969H18.598V18.503H21.197V18.0969Z" fill="white" stroke="white" stroke-width="0.145679"/>
<path d="M20.1476 18.0969H17.2992V18.503L20.1476 18.503V18.0969Z" fill="white" stroke="white" stroke-width="0.145679"/>
<path d="M21.1977 15.8228H17.2992V16.2289H21.1977V15.8228Z" fill="white" stroke="white" stroke-width="0.145679"/>
</svg>
