<svg width="32" height="32" viewBox="0 0 32 32" fill="none" xmlns="http://www.w3.org/2000/svg">
<rect width="32" height="32" rx="16" fill="#3B46E0"/>
<path d="M21.3937 8H10.9305C10.2859 8 9.76105 8.58172 9.76105 9.2965V22.7035C9.76105 23.4183 10.2859 24 10.9305 24H21.3937C22.0383 24 22.5631 23.4183 22.5631 22.7035V9.2965C22.5631 8.5817 22.0383 8 21.3937 8ZM10.9305 8.44863H21.3937C21.7908 8.44863 22.1145 8.82921 22.1145 9.29652V13.5524L10.2097 13.5531V9.29727C10.2097 8.82996 10.5327 8.44938 10.9305 8.44938L10.9305 8.44863ZM21.3937 23.5521H10.9305C10.5334 23.5521 10.2097 23.1715 10.2097 22.7042V14.0017H22.1137V22.7042C22.1137 23.1715 21.79 23.5521 21.3929 23.5521H21.3937ZM11.1667 12.9363H21.1566C21.2807 12.9363 21.3809 12.8361 21.3809 12.7119V10.1264C21.3809 9.70691 21.0684 9.36595 20.684 9.36595H11.6391C11.2548 9.36595 10.9423 9.70689 10.9423 10.1264V12.7119C10.9423 12.8361 11.0425 12.9363 11.1667 12.9363ZM11.391 10.1263C11.391 9.95737 11.5046 9.81456 11.6392 9.81456H20.6841C20.821 9.81456 20.9324 9.95438 20.9324 10.1263V12.4876H11.3909L11.391 10.1263ZM12.2269 14.934H11.7648C11.311 14.934 10.9423 15.3026 10.9423 15.7565V16.4421C10.9423 16.896 11.311 17.2646 11.7648 17.2646H12.2269C12.6808 17.2646 13.0494 16.896 13.0494 16.4421V15.7565C13.0494 15.3026 12.6808 14.934 12.2269 14.934ZM12.6007 16.4421C12.6007 16.6485 12.4333 16.816 12.2269 16.816H11.7648C11.5585 16.816 11.391 16.6485 11.391 16.4421V15.7565C11.391 15.5501 11.5585 15.3826 11.7648 15.3826H12.2269C12.4333 15.3826 12.6007 15.5501 12.6007 15.7565V16.4421ZM14.9829 14.934H14.5208C14.0669 14.934 13.6983 15.3026 13.6983 15.7565V16.4421C13.6983 16.896 14.0669 17.2646 14.5208 17.2646H14.9829C15.4367 17.2646 15.8053 16.896 15.8053 16.4421V15.7565C15.8053 15.3026 15.4367 14.934 14.9829 14.934ZM15.3567 16.4421C15.3567 16.6485 15.1892 16.816 14.9829 16.816H14.5208C14.3144 16.816 14.1469 16.6485 14.1469 16.4421V15.7565C14.1469 15.5501 14.3144 15.3826 14.5208 15.3826H14.9829C15.1892 15.3826 15.3567 15.5501 15.3567 15.7565V16.4421ZM17.6992 14.934H17.2371C16.784 14.934 16.4146 15.3026 16.4146 15.7565V16.4421C16.4146 16.896 16.784 17.2646 17.2371 17.2646H17.6992C18.1523 17.2646 18.5217 16.896 18.5217 16.4421V15.7565C18.5217 15.3026 18.1523 14.934 17.6992 14.934ZM18.073 16.4421C18.073 16.6485 17.9055 16.816 17.6992 16.816H17.2371C17.0307 16.816 16.8633 16.6485 16.8633 16.4421V15.7565C16.8633 15.5501 17.0307 15.3826 17.2371 15.3826H17.6992C17.9055 15.3826 18.073 15.5501 18.073 15.7565V16.4421ZM20.5583 14.934H20.097C19.6439 14.934 19.2745 15.3026 19.2745 15.7565V16.4421C19.2745 16.896 19.6439 17.2646 20.097 17.2646H20.5583C21.0114 17.2646 21.3808 16.896 21.3808 16.4421V15.7565C21.3808 15.3026 21.0114 14.934 20.5583 14.934ZM20.9322 16.4421C20.9322 16.6485 20.7647 16.816 20.5583 16.816H20.097C19.8906 16.816 19.7231 16.6485 19.7231 16.4421V15.7565C19.7231 15.5501 19.8906 15.3826 20.097 15.3826H20.5583C20.7647 15.3826 20.9322 15.5501 20.9322 15.7565V16.4421ZM12.2268 17.4754H11.7647C11.3108 17.4754 10.9422 17.8441 10.9422 18.2979V18.9835C10.9422 19.4374 11.3108 19.806 11.7647 19.806H12.2268C12.6806 19.806 13.0493 19.4374 13.0493 18.9835V18.2979C13.0493 17.8441 12.6806 17.4754 12.2268 17.4754ZM12.6006 18.9835C12.6006 19.1899 12.4331 19.3574 12.2268 19.3574H11.7647C11.5583 19.3574 11.3909 19.1899 11.3909 18.9835V18.2979C11.3909 18.0915 11.5583 17.9241 11.7647 17.9241H12.2268C12.4331 17.9241 12.6006 18.0915 12.6006 18.2979V18.9835ZM14.9827 17.4754H14.5207C14.0668 17.4754 13.6982 17.8441 13.6982 18.2979V18.9835C13.6982 19.4374 14.0668 19.806 14.5207 19.806H14.9827C15.4366 19.806 15.8052 19.4374 15.8052 18.9835V18.2979C15.8052 17.8441 15.4366 17.4754 14.9827 17.4754ZM15.3566 18.9835C15.3566 19.1899 15.1891 19.3574 14.9827 19.3574H14.5207C14.3143 19.3574 14.1468 19.1899 14.1468 18.9835V18.2979C14.1468 18.0915 14.3143 17.9241 14.5207 17.9241H14.9827C15.1891 17.9241 15.3566 18.0915 15.3566 18.2979V18.9835ZM17.6991 17.4754H17.237C16.7839 17.4754 16.4145 17.8441 16.4145 18.2979V18.9835C16.4145 19.4374 16.7839 19.806 17.237 19.806H17.6991C18.1522 19.806 18.5215 19.4374 18.5215 18.9835V18.2979C18.5215 17.8441 18.1522 17.4754 17.6991 17.4754ZM18.0729 18.9835C18.0729 19.1899 17.9054 19.3574 17.6991 19.3574H17.237C17.0306 19.3574 16.8631 19.1899 16.8631 18.9835V18.2979C16.8631 18.0915 17.0306 17.9241 17.237 17.9241H17.6991C17.9054 17.9241 18.0729 18.0915 18.0729 18.2979V18.9835ZM12.2266 20.0169H11.7646C11.3107 20.0169 10.9421 20.3855 10.9421 20.8393V21.525C10.9421 21.9788 11.3107 22.3474 11.7646 22.3474H12.2266C12.6805 22.3474 13.0491 21.9788 13.0491 21.525V20.8393C13.0491 20.3855 12.6805 20.0169 12.2266 20.0169ZM12.6005 21.525C12.6005 21.7313 12.433 21.8988 12.2266 21.8988H11.7646C11.5582 21.8988 11.3907 21.7313 11.3907 21.525V20.8393C11.3907 20.633 11.5582 20.4655 11.7646 20.4655H12.2266C12.433 20.4655 12.6005 20.633 12.6005 20.8393V21.525ZM14.9826 20.0169H14.5205C14.0667 20.0169 13.698 20.3855 13.698 20.8393V21.525C13.698 21.9788 14.0667 22.3474 14.5205 22.3474H14.9826C15.4365 22.3474 15.8051 21.9788 15.8051 21.525V20.8393C15.8051 20.3855 15.4365 20.0169 14.9826 20.0169ZM15.3564 21.525C15.3564 21.7313 15.189 21.8988 14.9826 21.8988H14.5205C14.3142 21.8988 14.1467 21.7313 14.1467 21.525V20.8393C14.1467 20.633 14.3142 20.4655 14.5205 20.4655H14.9826C15.189 20.4655 15.3564 20.633 15.3564 20.8393V21.525ZM17.6989 20.0169H17.2368C16.7837 20.0169 16.4144 20.3855 16.4144 20.8393V21.525C16.4144 21.9788 16.7837 22.3474 17.2368 22.3474H17.6989C18.152 22.3474 18.5214 21.9788 18.5214 21.525V20.8393C18.5214 20.3855 18.152 20.0169 17.6989 20.0169ZM18.0728 21.525C18.0728 21.7313 17.9053 21.8988 17.6989 21.8988H17.2368C17.0305 21.8988 16.863 21.7313 16.863 21.525V20.8393C16.863 20.633 17.0305 20.4655 17.2368 20.4655H17.6989C17.9053 20.4655 18.0728 20.633 18.0728 20.8393V21.525ZM20.9208 17.4755H19.7349C19.4807 17.4755 19.2744 17.696 19.2744 17.9682V21.8548C19.2744 22.1262 19.4807 22.3475 19.7349 22.3475H20.9208C21.175 22.3475 21.3814 22.127 21.3814 21.8548V17.9682C21.3814 17.6968 21.175 17.4755 20.9208 17.4755ZM20.9208 21.8988L19.723 21.8547L19.7349 17.924H20.9208L20.9327 17.9682L20.9208 21.8988Z" fill="white"/>
</svg>
