<svg width="32" height="32" viewBox="0 0 32 32" fill="none" xmlns="http://www.w3.org/2000/svg">
<rect width="32" height="32" rx="16" fill="#3B46E0"/>
<path d="M23.689 13.2065L17.6963 9.02286C17.675 9.00797 17.6496 9 17.6236 9H14.7787C14.7527 9 14.7273 9.00797 14.706 9.02286L8.7133 13.2065C8.39263 13.4304 8.20117 13.7976 8.20117 14.1886V14.5371C8.20117 14.6072 8.25803 14.6641 8.32816 14.6641H8.58711V22.0989C8.58711 22.169 8.64397 22.2259 8.71409 22.2259H23.6883C23.7584 22.2259 23.8153 22.169 23.8153 22.0989V14.6641H24.0742C24.1443 14.6641 24.2012 14.6072 24.2012 14.5371V14.1886C24.2012 13.7976 24.0097 13.4304 23.689 13.2065ZM21.597 14.4101H19.1132C19.0176 14.2937 18.9206 14.179 18.8221 14.0665C18.4771 13.6727 18.1113 13.3005 17.7259 12.9497H20.2591C20.7153 13.4033 21.1611 13.8898 21.597 14.4101ZM13.4758 15.27V14.6641H18.9265V15.27H13.4758ZM13.7244 16.9189H11.8988C12.2984 16.1906 12.739 15.5147 13.2218 14.8907V15.397C13.2218 15.4671 13.2787 15.524 13.3488 15.524H13.7244L13.7244 16.9189ZM18.678 15.524H19.0536C19.1237 15.524 19.1805 15.4671 19.1805 15.397V14.8907C19.6634 15.5147 20.104 16.1906 20.5036 16.9189H18.678L18.678 15.524ZM13.6106 14.4101C14.056 13.8837 14.5342 13.3971 15.046 12.9497H17.3564C17.8682 13.397 18.3464 13.8837 18.7917 14.4101H13.6106ZM15.3454 12.6957C15.6213 12.4684 15.9065 12.252 16.2012 12.0462C16.4958 12.252 16.781 12.4685 17.057 12.6957H15.3454ZM15.9833 11.8973C15.63 12.1484 15.2898 12.4146 14.9631 12.6957H12.4034C13.0623 12.0642 13.743 11.5003 14.4475 11.0023C14.9847 11.2726 15.4964 11.571 15.9833 11.8973ZM14.9529 10.9834H17.4495C17.0174 11.2183 16.6012 11.4726 16.2012 11.7457C15.8011 11.4726 15.3849 11.2183 14.9529 10.9834ZM16.419 11.8973C16.906 11.571 17.4176 11.2726 17.9549 11.0023C18.6593 11.5003 19.34 12.0642 19.999 12.6957H17.4392C17.1125 12.4146 16.7723 12.1484 16.419 11.8973ZM14.8461 10.7294C15.2883 10.4359 15.7399 10.1677 16.2012 9.92419C16.6624 10.1677 17.114 10.4359 17.5563 10.7294H14.8461ZM14.0391 10.9834C13.3501 11.4904 12.6839 12.0607 12.0386 12.6957H9.8886L12.3414 10.9834H14.0391ZM12.7052 10.7294L13.146 10.4217C13.3937 10.5192 13.637 10.6217 13.8754 10.7294H12.7052ZM12.1432 12.9497H14.6765C14.291 13.3005 13.9252 13.6727 13.5802 14.0665C13.4817 14.179 13.3848 14.2937 13.2891 14.4101H10.8054C11.2413 13.8898 11.687 13.4033 12.1432 12.9497ZM13.0853 14.6641C12.5466 15.3511 12.0561 16.104 11.6157 16.9189H8.94876C9.48219 16.1087 10.0308 15.3577 10.5958 14.6641H13.0853ZM8.84108 17.1728H11.4809C11.0215 18.057 10.6197 19.0118 10.2778 20.0324H8.84108V17.1728ZM11.7622 17.1728H13.7244V20.0324H10.5457C10.8944 19.0039 11.2994 18.0512 11.7622 17.1728ZM13.9783 15.524H14.4187V21.9719H13.9783V15.524ZM14.6727 15.524H16.0742V21.9719H14.6727V15.524ZM16.3282 15.524H17.7296V21.9719H16.3282V15.524ZM17.9836 15.524H18.424V21.9719H17.9836V15.524ZM18.678 17.1728H20.6402C21.103 18.0512 21.5079 19.0039 21.8567 20.0324H18.678V17.1728ZM22.1246 20.0324C21.7826 19.0118 21.3809 18.057 20.9215 17.1728H23.5613V20.0324H22.1246ZM20.7866 16.9189C20.3463 16.104 19.8558 15.3511 19.3171 14.6641H21.8066C22.3716 15.3577 22.9202 16.1087 23.4536 16.9189H20.7866ZM20.3637 12.6957C19.7184 12.0607 19.0522 11.4904 18.3632 10.9834H20.0609L22.5137 12.6957H20.3637ZM18.5269 10.7294C18.7653 10.6217 19.0086 10.5192 19.2563 10.4217L19.6971 10.7294H18.5269ZM19.007 10.2477C18.6557 10.3903 18.3129 10.5443 17.9789 10.709C17.4894 10.3695 16.9884 10.061 16.4755 9.78289C16.8465 9.59648 17.2237 9.42581 17.6075 9.2706L19.007 10.2477ZM16.2012 9.63756C15.9387 9.5019 15.6731 9.37406 15.4044 9.25397H16.998C16.7292 9.3741 16.4636 9.5019 16.2012 9.63756ZM14.7949 9.27057C15.1786 9.42578 15.5558 9.59644 15.9268 9.78286C15.4139 10.061 14.913 10.3695 14.4235 10.709C14.0894 10.5442 13.7467 10.3903 13.3953 10.2476L14.7949 9.27057ZM8.45514 14.1886C8.45514 13.8804 8.606 13.5912 8.85866 13.4148L9.52479 12.9497H11.7849C11.3385 13.4047 10.9021 13.8913 10.4752 14.4101H8.45514V14.1886ZM10.2692 14.6641C9.78114 15.2736 9.30536 15.9257 8.84108 16.6216V14.6641H10.2692ZM8.84108 20.2864H13.7244V21.9719H8.84108V20.2864ZM18.678 21.9719V20.2864H23.5613V21.9719H18.678ZM23.5613 16.6216C23.097 15.9257 22.6212 15.2735 22.1331 14.6641H23.5613V16.6216ZM23.9472 14.4101H21.9271C21.5002 13.8913 21.0638 13.4047 20.6174 12.9497H22.8775L23.5436 13.4148C23.7963 13.5912 23.9472 13.8805 23.9472 14.1886V14.4101H23.9472Z" fill="white" stroke="white" stroke-width="0.16"/>
</svg>
